# Blender v2.81 (sub 16) OBJ File: 'DeathCapMushroom.blend'
# www.blender.org
mtllib DeathCapMushroom.mtl
o Mushroom_Cube
v 0.057570 0.876580 0.124156
v 0.164799 0.907877 -0.161150
v 0.007800 0.901094 0.254689
v -0.233717 0.891579 0.091557
v 0.087478 0.918739 -0.219012
v 0.956540 1.784864 -0.098465
v -0.640101 1.770888 -0.891343
v -0.863079 1.778139 0.490066
v 0.708696 1.761939 -0.753213
v -0.062827 1.652989 -0.356402
v 0.202680 1.651786 -0.244529
v -0.196190 1.310997 0.012649
v 0.248871 0.901807 0.051639
v 0.352314 1.715482 0.016755
v 0.828701 1.790275 0.748060
v 0.345025 1.768290 0.440720
v 0.368209 1.766865 -1.012992
v -0.595034 1.775431 0.110456
v 0.131997 1.700685 -0.875318
v 0.150432 1.377049 0.134851
v -0.007370 1.709377 0.359939
v -0.056922 2.052872 -1.029242
v -0.099154 1.328570 -0.148936
v -0.170110 1.504650 -0.062304
v -0.309352 1.686906 -0.176906
v -0.623513 2.212060 0.006469
v -0.302166 1.711989 0.202663
v 0.228246 2.278003 0.359824
v -0.476683 2.202055 -0.516869
v -0.786703 2.074303 -0.636490
v 0.724177 2.182612 0.471733
v -0.091602 2.182070 -0.765801
v 0.676790 2.226546 0.100710
v 0.959005 2.014270 -0.484707
v 0.124347 1.617996 0.215264
v 0.274137 1.784278 1.100530
v -0.226942 1.766509 1.073627
v -0.933067 1.787604 -0.378588
v 0.378853 1.702354 0.962354
v 0.741271 1.943605 -0.809117
v 0.169956 1.454051 -0.061387
v -0.892697 2.113843 -0.312196
v 0.273708 1.953399 1.059147
v -0.254582 1.900127 -1.109536
v -0.351641 1.703372 0.927646
v 1.103997 1.940051 -0.060902
v 0.640158 2.233414 -0.147185
v -0.488202 2.078839 -0.882190
v 0.661668 1.814060 -0.879346
v -0.135381 1.469325 0.125714
v 1.077681 1.938444 0.312714
v 0.950623 1.842997 -0.572213
v 1.077931 1.823983 -0.025265
v -0.017908 1.720141 1.045732
v -1.004835 2.005730 -0.341144
v 0.976368 1.871081 0.607304
v 0.894874 1.774280 0.406705
v 0.267030 1.878151 -1.086597
v -0.230340 1.705490 -0.983188
v 0.574559 1.773250 0.969721
v -1.036222 1.865329 -0.302400
v -0.873321 1.813422 -0.646361
v 0.005050 1.469020 -0.170070
v 0.894261 2.060338 0.558943
v 1.026752 2.072343 0.075314
v -0.584664 1.820127 0.960116
v -0.920580 1.952341 -0.610774
v 0.315625 2.278033 -0.027462
v 0.613232 1.772691 -0.056380
v -0.021684 1.740377 0.618705
v 0.522045 2.108371 -0.741845
v -0.029975 1.426602 0.191706
v -0.014899 1.746000 -1.083894
v 0.078542 2.193871 0.747637
v -0.854776 2.109364 0.314272
v 0.551281 2.000823 0.950061
v -1.015511 1.952363 0.344518
v -1.051748 2.003014 0.070531
v -1.077480 1.843410 0.030404
v -0.268750 2.208161 0.555339
v -0.380569 1.802440 -1.065599
v -0.489144 2.092473 0.745772
v -0.124205 0.890473 -0.193566
v 0.063762 0.525275 -0.115930
v -0.117807 0.405550 0.064178
v 0.077044 0.101603 0.112105
v -0.075918 0.469116 -0.106221
v -0.057897 0.097898 0.131282
v -0.795330 1.940406 0.748456
v 0.086504 0.098366 -0.113241
v -0.635565 1.943031 -0.911068
v -0.056578 1.951066 1.068410
v 0.787379 1.956622 0.812486
v -0.901955 1.834026 0.648946
v -0.019432 0.885781 -0.138030
v 0.141026 0.629274 0.004650
v 0.145566 0.877952 -0.029732
v -0.133607 0.097962 -0.056022
v -0.133828 0.876306 -0.039035
v -0.094083 0.875647 0.105417
v 0.135104 0.101630 0.021524
v 0.302054 2.168789 0.789836
v -0.397214 2.003379 0.948030
v 1.000000 0.085649 -1.000000
v 1.000000 0.090634 1.000000
v -1.000000 0.085649 -1.000000
v -1.000000 0.074018 1.000000
vt 0.000000 0.000000
vt 0.000000 0.000000
vt 0.000000 0.000000
vt 0.000000 0.000000
vt 0.000000 0.000000
vt 0.000000 0.000000
vt 0.000000 0.000000
vt 0.000000 0.000000
vt 0.000000 0.000000
vt 0.000000 0.000000
vt 0.000000 0.000000
vt 0.000000 0.000000
vt 0.000000 0.000000
vt 0.000000 0.000000
vt 0.000000 0.000000
vt 0.000000 0.000000
vt 0.000000 0.000000
vt 0.000000 0.000000
vt 0.000000 0.000000
vt 0.000000 0.000000
vt 0.000000 0.000000
vt 0.000000 0.000000
vt 0.000000 0.000000
vt 0.000000 0.000000
vt 0.000000 0.000000
vt 0.000000 0.000000
vt 0.000000 0.000000
vt 0.000000 0.000000
vt 0.000000 0.000000
vt 0.000000 0.000000
vt 0.000000 0.000000
vt 0.000000 0.000000
vt 0.000000 0.000000
vt 0.000000 0.000000
vt 0.000000 0.000000
vt 0.000000 0.000000
vt 0.000000 0.000000
vt 0.000000 0.000000
vt 0.000000 0.000000
vt 0.000000 0.000000
vt 0.000000 0.000000
vt 0.000000 0.000000
vt 0.000000 0.000000
vt 0.000000 0.000000
vt 0.000000 0.000000
vt 0.000000 0.000000
vt 0.000000 0.000000
vt 0.000000 0.000000
vt 0.000000 0.000000
vt 0.000000 0.000000
vt 0.000000 0.000000
vt 0.000000 0.000000
vt 0.000000 0.000000
vt 0.000000 0.000000
vt 0.000000 0.000000
vt 0.000000 0.000000
vt 0.000000 0.000000
vt 0.000000 0.000000
vt 0.000000 0.000000
vt 0.000000 0.000000
vt 0.000000 0.000000
vt 0.000000 0.000000
vt 0.000000 0.000000
vt 0.000000 0.000000
vt 0.000000 0.000000
vt 0.000000 0.000000
vt 0.000000 0.000000
vt 0.000000 0.000000
vt 0.000000 0.000000
vt 0.000000 0.000000
vt 0.000000 0.000000
vt 0.000000 0.000000
vt 0.000000 0.000000
vt 0.000000 0.000000
vt 0.000000 0.000000
vt 0.000000 0.000000
vt 0.000000 0.000000
vt 0.000000 0.000000
vt 0.000000 0.000000
vt 0.000000 0.000000
vt 0.000000 0.000000
vt 0.000000 0.000000
vt 0.000000 0.000000
vt 0.000000 0.000000
vt 0.000000 0.000000
vt 0.000000 0.000000
vt 0.000000 0.000000
vt 0.000000 0.000000
vt 0.000000 0.000000
vt 0.000000 0.000000
vt 0.000000 0.000000
vt 0.000000 0.000000
vt 0.000000 0.000000
vt 0.000000 0.000000
vt 0.000000 0.000000
vt 0.000000 0.000000
vt 0.000000 0.000000
vt 0.000000 0.000000
vt 0.000000 0.000000
vt 0.000000 0.000000
vt 0.000000 0.000000
vt 0.000000 0.000000
vt 0.000000 0.000000
vt 0.600000 0.500000
vt 0.125000 0.750000
vt 0.125000 0.500000
vt 0.741039 0.611812
vt 0.733313 0.627044
vt 0.875000 0.500000
vt 0.763790 0.619308
vt 0.613095 0.750000
vt 0.875000 0.750000
vt 0.756882 0.639360
vt 0.739160 0.637990
vn -0.2590 0.0470 -0.9647
vn 0.9330 -0.2792 -0.2269
vn 0.9712 0.1724 0.1643
vn -0.2318 -0.9704 0.0685
vn 0.0155 -0.8389 0.5440
vn -0.2800 -0.9263 0.2520
vn 0.1039 -0.9542 -0.2805
vn 0.8427 -0.5097 0.1733
vn -0.3426 -0.9248 -0.1656
vn -0.1717 -0.9829 -0.0660
vn 0.6569 -0.1248 0.7436
vn 0.5822 -0.6516 -0.4863
vn -0.3368 -0.9110 0.2380
vn -0.6562 -0.7432 -0.1303
vn -0.1276 -0.8660 0.4835
vn -0.8963 -0.2041 -0.3937
vn -0.2466 -0.8205 -0.5158
vn -0.9384 -0.2242 0.2629
vn 0.0995 -0.9946 0.0290
vn 0.0393 -0.1042 -0.9938
vn -0.8499 -0.0867 -0.5198
vn 0.4321 -0.1902 -0.8815
vn -0.5192 0.0379 0.8538
vn 0.3687 -0.6638 -0.6508
vn -0.1494 -0.7645 -0.6271
vn -0.4810 -0.6997 -0.5283
vn 0.4798 0.1717 -0.8604
vn 0.3008 0.6752 -0.6735
vn -0.3217 -0.9467 0.0156
vn 0.0572 0.4055 -0.9123
vn 0.1474 -0.9662 -0.2115
vn 0.2323 -0.9684 0.0904
vn -0.7287 -0.0734 -0.6809
vn -0.6991 0.0325 0.7143
vn -0.3420 0.5353 -0.7723
vn 0.2048 -0.9782 -0.0344
vn 0.0788 -0.8302 0.5519
vn -0.0944 -0.3045 -0.9478
vn 0.0628 -0.9652 -0.2539
vn -0.5488 -0.0809 -0.8320
vn -0.6601 0.7182 0.2201
vn 0.5809 -0.8000 0.1501
vn 0.7757 0.2566 -0.5765
vn 0.5775 -0.8021 0.1524
vn 0.3315 0.1357 0.9336
vn -0.6031 0.5378 -0.5891
vn -0.9410 0.1420 0.3072
vn -0.1638 -0.9857 -0.0388
vn 0.0372 -0.9961 -0.0796
vn -0.1648 0.9160 0.3657
vn -0.9531 0.2119 0.2159
vn 0.3019 -0.6211 -0.7232
vn -0.5963 -0.3747 0.7099
vn -0.0093 -0.9860 0.1662
vn -0.0229 -0.9997 -0.0090
vn 0.1308 0.9910 0.0296
vn 0.1152 0.7698 0.6278
vn 0.0030 -0.9921 -0.1256
vn -0.2634 0.9291 0.2596
vn 0.1873 -0.4177 -0.8891
vn 0.0097 -0.9998 -0.0198
vn -0.4689 -0.7079 -0.5281
vn -0.2089 0.6530 -0.7280
vn 0.4281 0.7588 0.4909
vn 0.2614 0.7022 -0.6623
vn 0.0368 -0.9993 0.0110
vn -0.0414 -0.9989 -0.0221
vn -0.8149 -0.5771 0.0536
vn 0.4788 -0.4768 0.7371
vn 0.4508 0.8806 -0.1459
vn 0.5170 0.1260 0.8467
vn 0.8310 -0.5409 -0.1296
vn -0.5603 0.0587 0.8262
vn -0.0638 0.9801 0.1880
vn -0.6174 0.7009 0.3573
vn -0.9334 0.0161 -0.3586
vn -0.1578 0.8752 0.4573
vn 0.6058 0.1374 -0.7837
vn -0.1329 0.1080 -0.9852
vn -0.8577 0.1004 -0.5042
vn -0.6824 0.7273 -0.0730
vn 0.3930 -0.9121 -0.1168
vn -0.9767 0.1849 -0.1089
vn 0.1674 0.9813 0.0948
vn 0.7130 -0.0921 0.6951
vn 0.0789 -0.9554 -0.2847
vn -0.2249 0.9624 0.1522
vn -0.8053 -0.5916 0.0376
vn -0.2981 -0.7567 0.5819
vn 0.2229 -0.9391 0.2614
vn 0.3407 -0.9263 -0.1610
vn -0.1160 -0.9929 0.0274
vn -0.7250 -0.0595 -0.6862
vn 0.5194 0.8388 0.1631
vn 0.0965 -0.9599 -0.2632
vn 0.3626 0.8201 0.4427
vn 0.9290 0.0580 -0.3654
vn 0.3463 0.9018 -0.2584
vn -0.3803 -0.8563 0.3496
vn 0.1613 -0.9834 0.0835
vn -0.3460 -0.9366 -0.0555
vn -0.6682 0.6618 -0.3398
vn -0.2559 0.2625 0.9304
vn -0.8052 0.3858 0.4503
vn -0.9811 0.1200 0.1519
vn 0.6442 -0.0005 0.7648
vn 0.5675 -0.8136 -0.1267
vn 0.1249 0.9657 -0.2279
vn -0.0226 -0.9895 -0.1427
vn -0.6854 -0.6942 -0.2199
vn -0.9401 0.1224 -0.3180
vn -0.3014 0.9297 -0.2119
vn -0.0654 -0.0098 -0.9978
vn -0.2617 0.9170 -0.3010
vn 0.4060 0.9121 0.0562
vn 0.2149 -0.2882 0.9331
vn 0.9462 0.1093 -0.3046
vn -0.0863 -0.9957 0.0349
vn -0.9638 0.0254 0.2653
vn 0.2456 -0.9614 0.1240
vn -0.2504 -0.0914 -0.9638
vn -0.0563 0.0801 0.9952
vn -0.7101 0.0152 -0.7039
vn -0.5641 -0.8124 0.1477
vn -0.0995 0.8881 -0.4487
vn -0.1088 0.9910 0.0774
vn -0.0226 -0.5881 0.8085
vn -0.0409 -0.0705 -0.9967
vn -0.4062 -0.5179 0.7528
vn -0.4090 0.8301 0.3790
vn 0.9777 -0.1987 0.0680
vn 0.1410 -0.0119 0.9899
vn 0.8315 0.0123 0.5553
vn 0.2977 -0.9545 0.0163
vn -0.2681 0.3338 0.9037
vn 0.9406 -0.0214 -0.3387
vn -0.6555 0.0313 -0.7545
vn 0.0046 -0.9921 -0.1257
vn 0.0120 0.7803 0.6253
vn -0.2479 0.9648 -0.0880
vn 0.7426 0.4491 0.4968
vn 0.3431 -0.8161 -0.4651
vn 0.3682 -0.9223 -0.1178
vn 0.4000 0.1194 0.9087
vn 0.7238 0.6558 0.2146
vn -0.3785 0.7712 0.5118
vn 0.0644 0.9698 0.2353
vn 0.3227 0.2257 0.9192
vn -0.4767 0.2259 -0.8495
vn 0.5497 0.0758 -0.8319
vn 0.8419 0.0078 0.5396
vn 0.6865 -0.1622 0.7088
vn 0.8893 0.4528 0.0646
vn 0.1243 0.8972 -0.4237
vn -0.0700 -0.9909 0.1148
vn 0.2970 0.8520 0.4312
vn 0.8088 0.4482 0.3807
vn 0.0731 0.9831 -0.1681
vn -0.0804 0.8108 0.5798
vn -0.4875 0.6524 -0.5803
vn 0.3159 -0.9025 0.2929
vn 0.1356 0.9656 0.2220
vn 0.7737 0.6137 -0.1572
vn 0.4009 0.9155 -0.0339
vn 0.4748 -0.8723 0.1168
vn -0.9226 -0.0983 0.3729
vn -0.1228 0.0273 0.9921
vn 0.8701 -0.0831 -0.4859
vn 0.8251 0.0404 -0.5635
vn -0.9903 -0.0033 0.1386
vn 0.7297 -0.0803 -0.6790
vn 0.0380 -0.9991 0.0206
vn -0.4400 0.1710 -0.8816
vn -0.7801 -0.0155 0.6254
vn -0.4489 0.5077 0.7353
vn 0.0037 -0.9958 -0.0911
vn 0.5534 0.1557 -0.8182
vn 0.1387 0.9903 0.0069
vn 0.0000 -1.0000 -0.0058
vn 0.8135 -0.4619 -0.3533
vn -0.6236 0.7251 -0.2922
vn 0.1356 -0.9828 0.1252
vn -0.1346 -0.9575 0.2551
vn -0.0228 0.8017 0.5973
vn -0.2831 -0.9533 -0.1050
vn -0.9760 0.1878 -0.1100
vn -0.0160 -0.9838 0.1786
vn 0.0906 -0.9738 -0.2085
vn -0.3730 0.9274 0.0292
vn 0.0126 -0.9961 -0.0868
vn -0.5098 0.8595 0.0370
vn 0.8667 0.0528 0.4961
vn 0.0294 -0.9963 -0.0805
vn -0.0235 0.9930 -0.1161
vn -0.0071 0.9997 -0.0216
vn 0.0000 0.9999 -0.0130
vn -0.0076 0.9997 -0.0222
vn 0.0083 -1.0000 0.0025
vn 0.0155 0.9999 -0.0025
vn -0.0205 0.9998 0.0058
vn -0.0182 0.9998 0.0077
vn 0.0072 1.0000 0.0049
vn -0.0083 0.9998 0.0185
vn -0.0224 0.9991 0.0356
vn -0.1527 0.9379 -0.3115
vn 0.0256 0.2377 0.9710
vn 0.4379 0.7713 -0.4619
vn 0.2450 -0.7411 0.6251
vn -0.0706 0.9974 -0.0159
vn -0.0714 0.9967 -0.0391
usemtl Material
s off
f 63/1/1 5/2/1 23/3/1
f 52/4/2 46/5/2 53/6/2
f 41/7/3 20/8/3 13/9/3
f 27/10/4 18/11/4 25/12/4
f 35/13/5 16/14/5 21/15/5
f 70/16/6 18/11/6 27/10/6
f 19/17/7 73/18/7 17/19/7
f 53/6/8 51/20/8 56/21/8
f 62/22/9 7/23/9 38/24/9
f 7/23/10 59/25/10 38/24/10
f 93/26/11 60/27/11 15/28/11
f 9/29/12 49/30/12 52/4/12
f 8/31/13 45/32/13 94/33/13
f 38/24/14 79/34/14 61/35/14
f 37/36/15 45/32/15 54/37/15
f 61/35/16 67/38/16 62/22/16
f 7/23/17 81/39/17 59/25/17
f 77/40/18 79/34/18 94/33/18
f 9/29/19 69/41/19 19/17/19
f 73/18/20 44/42/20 58/43/20
f 12/44/21 24/45/21 23/3/21
f 17/19/22 58/43/22 49/30/22
f 50/46/23 4/47/23 72/48/23
f 41/7/24 63/1/24 11/49/24
f 81/39/25 73/18/25 59/25/25
f 10/50/26 24/45/26 25/12/26
f 40/51/27 49/30/27 58/43/27
f 58/43/28 71/52/28 40/51/28
f 8/31/29 79/34/29 38/24/29
f 44/42/30 22/53/30 58/43/30
f 19/17/31 17/19/31 9/29/31
f 57/54/32 15/28/32 39/55/32
f 62/22/33 67/38/33 7/23/33
f 89/56/34 94/33/34 66/57/34
f 48/58/35 44/42/35 91/59/35
f 19/17/36 69/41/36 14/60/36
f 54/37/37 39/55/37 36/61/37
f 81/39/38 44/42/38 73/18/38
f 73/18/39 19/17/39 59/25/39
f 91/59/40 81/39/40 7/23/40
f 77/40/41 75/62/41 78/63/41
f 57/54/42 56/21/42 15/28/42
f 34/64/43 52/4/43 40/51/43
f 56/21/44 57/54/44 53/6/44
f 72/48/45 3/65/45 20/8/45
f 30/66/46 91/59/46 67/38/46
f 50/46/47 12/44/47 4/47/47
f 25/12/48 59/25/48 10/50/48
f 45/32/49 70/16/49 16/14/49
f 80/67/50 82/68/50 74/69/50
f 24/45/51 12/44/51 50/46/51
f 63/1/52 10/50/52 11/49/52
f 21/15/53 50/46/53 72/48/53
f 45/32/54 39/55/54 54/37/54
f 38/24/55 18/11/55 8/31/55
f 28/70/56 33/71/56 68/72/56
f 76/73/57 102/74/57 43/75/57
f 39/55/58 16/14/58 57/54/58
f 75/62/59 82/68/59 80/67/59
f 73/18/60 58/43/60 17/19/60
f 6/76/61 57/54/61 16/14/61
f 10/50/62 63/1/62 24/45/62
f 22/53/63 44/42/63 48/58/63
f 64/77/64 76/73/64 93/26/64
f 58/43/65 22/53/65 71/52/65
f 69/41/66 6/76/66 16/14/66
f 70/16/67 8/31/67 18/11/67
f 27/10/68 25/12/68 50/46/68
f 35/13/69 21/15/69 72/48/69
f 47/78/70 65/79/70 34/64/70
f 93/26/71 76/73/71 60/27/71
f 14/60/72 20/8/72 41/7/72
f 72/48/73 4/47/73 3/65/73
f 80/67/74 74/69/74 28/70/74
f 77/40/75 89/56/75 75/62/75
f 4/47/76 12/44/76 83/80/76
f 74/69/77 82/68/77 103/81/77
f 2/82/78 5/2/78 41/7/78
f 23/3/79 5/2/79 83/80/79
f 12/44/80 23/3/80 83/80/80
f 55/83/81 78/63/81 42/84/81
f 9/29/82 52/4/82 6/76/82
f 78/63/83 61/35/83 79/34/83
f 31/85/84 33/71/84 28/70/84
f 56/21/85 93/26/85 15/28/85
f 95/86/86 5/2/86 2/82/86
f 75/62/87 80/67/87 26/87/87
f 25/12/88 24/45/88 50/46/88
f 45/32/89 37/36/89 66/57/89
f 13/9/90 3/65/90 1/88/90
f 97/89/91 2/82/91 13/9/91
f 99/90/92 100/91/92 4/47/92
f 7/23/93 67/38/93 91/59/93
f 65/79/94 31/85/94 64/77/94
f 5/2/95 95/86/95 83/80/95
f 31/85/96 76/73/96 64/77/96
f 41/7/97 13/9/97 2/82/97
f 47/78/98 34/64/98 71/52/98
f 66/57/99 94/33/99 45/32/99
f 97/89/100 13/9/100 1/88/100
f 25/12/101 18/11/101 59/25/101
f 67/38/102 55/83/102 30/66/102
f 66/57/103 37/36/103 92/92/103
f 77/40/104 94/33/104 89/56/104
f 79/34/105 77/40/105 78/63/105
f 13/9/106 20/8/106 3/65/106
f 14/60/107 11/49/107 19/17/107
f 32/93/108 47/78/108 71/52/108
f 8/31/109 70/16/109 45/32/109
f 61/35/110 62/22/110 38/24/110
f 67/38/111 61/35/111 55/83/111
f 29/94/112 30/66/112 42/84/112
f 84/95/113 90/96/113 87/97/113
f 29/94/114 48/58/114 30/66/114
f 31/85/115 65/79/115 33/71/115
f 35/13/116 72/48/116 20/8/116
f 52/4/117 34/64/117 46/5/117
f 59/25/118 18/11/118 38/24/118
f 100/91/119 99/90/119 85/98/119
f 69/41/120 16/14/120 14/60/120
f 87/97/121 90/96/121 98/99/121
f 92/92/122 37/36/122 36/61/122
f 87/97/123 98/99/123 99/90/123
f 8/31/124 94/33/124 79/34/124
f 32/93/125 22/53/125 48/58/125
f 28/70/126 26/87/126 80/67/126
f 36/61/127 37/36/127 54/37/127
f 95/86/128 84/95/128 87/97/128
f 50/46/129 21/15/129 27/10/129
f 82/68/130 75/62/130 89/56/130
f 46/5/131 51/20/131 53/6/131
f 1/88/132 88/100/132 86/101/132
f 1/88/133 86/101/133 96/102/133
f 57/54/134 6/76/134 53/6/134
f 66/57/135 92/92/135 103/81/135
f 90/96/136 96/102/136 101/103/136
f 99/90/137 95/86/137 87/97/137
f 39/55/138 45/32/138 16/14/138
f 102/74/139 92/92/139 43/75/139
f 26/87/140 29/94/140 42/84/140
f 56/21/141 64/77/141 93/26/141
f 17/19/142 49/30/142 9/29/142
f 53/6/143 6/76/143 52/4/143
f 76/73/144 36/61/144 60/27/144
f 65/79/145 64/77/145 51/20/145
f 82/68/146 89/56/146 103/81/146
f 102/74/147 28/70/147 74/69/147
f 76/73/148 43/75/148 36/61/148
f 63/1/149 23/3/149 24/45/149
f 97/89/150 84/95/150 95/86/150
f 86/101/151 101/103/151 96/102/151
f 14/60/152 35/13/152 20/8/152
f 65/79/153 51/20/153 46/5/153
f 22/53/154 32/93/154 71/52/154
f 70/16/155 27/10/155 21/15/155
f 31/85/156 102/74/156 76/73/156
f 56/21/157 51/20/157 64/77/157
f 47/78/158 32/93/158 68/72/158
f 103/81/159 92/92/159 74/69/159
f 30/66/160 48/58/160 91/59/160
f 15/28/161 60/27/161 39/55/161
f 31/85/162 28/70/162 102/74/162
f 34/64/163 65/79/163 46/5/163
f 65/79/164 47/78/164 33/71/164
f 14/60/165 16/14/165 35/13/165
f 85/98/166 98/99/166 88/100/166
f 100/91/167 88/100/167 1/88/167
f 84/95/168 97/89/168 96/102/168
f 84/95/169 96/102/169 90/96/169
f 99/90/170 98/99/170 85/98/170
f 49/30/171 40/51/171 52/4/171
f 6/76/172 69/41/172 9/29/172
f 91/59/173 44/42/173 81/39/173
f 85/98/174 88/100/174 100/91/174
f 89/56/175 66/57/175 103/81/175
f 95/86/176 99/90/176 83/80/176
f 41/7/177 5/2/177 63/1/177
f 68/72/178 33/71/178 47/78/178
f 104/104/179 107/105/179 106/106/179
f 11/49/180 14/60/180 41/7/180
f 30/66/181 55/83/181 42/84/181
f 70/16/182 21/15/182 16/14/182
f 3/65/183 4/47/183 100/91/183
f 74/69/184 92/92/184 102/74/184
f 99/90/185 4/47/185 83/80/185
f 55/83/186 61/35/186 78/63/186
f 3/65/187 100/91/187 1/88/187
f 97/89/188 95/86/188 2/82/188
f 26/87/189 42/84/189 75/62/189
f 19/17/190 10/50/190 59/25/190
f 78/63/191 75/62/191 42/84/191
f 97/89/192 1/88/192 96/102/192
f 11/49/193 10/50/193 19/17/193
f 32/93/194 29/94/194 68/72/194
f 90/107/195 101/108/195 104/104/195
f 104/104/196 106/109/196 98/110/196
f 104/104/197 98/110/197 90/107/197
f 104/104/198 105/111/198 107/105/198
f 105/111/199 104/104/199 101/108/199
f 98/110/200 106/109/200 107/112/200
f 88/113/201 98/110/201 107/112/201
f 105/111/202 101/108/202 86/114/202
f 88/113/203 107/112/203 105/111/203
f 105/111/204 86/114/204 88/113/204
f 48/58/205 29/94/205 32/93/205
f 43/75/206 92/92/206 36/61/206
f 71/52/207 34/64/207 40/51/207
f 39/55/208 60/27/208 36/61/208
f 28/70/209 68/72/209 26/87/209
f 68/72/210 29/94/210 26/87/210
